<mxfile host="Electron" agent="Mozilla/5.0 (Macintosh; Intel Mac OS X 10_15_7) AppleWebKit/537.36 (KHTML, like Gecko) draw.io/28.1.2 Chrome/138.0.7204.243 Electron/37.4.0 Safari/537.36" version="28.1.2">
  <diagram name="Sayfa -1" id="HDRAFnsheXoZifoF1fop">
    <mxGraphModel dx="1450" dy="383" grid="1" gridSize="10" guides="1" tooltips="1" connect="1" arrows="1" fold="1" page="1" pageScale="1" pageWidth="827" pageHeight="1169" math="0" shadow="0">
      <root>
        <mxCell id="0" />
        <mxCell id="1" parent="0" />
        <mxCell id="1-Ke2IDWbRorJ9sCrpKL-71" style="edgeStyle=orthogonalEdgeStyle;rounded=0;orthogonalLoop=1;jettySize=auto;html=1;exitX=1;exitY=1;exitDx=0;exitDy=0;" parent="1" source="1-Ke2IDWbRorJ9sCrpKL-1" target="1-Ke2IDWbRorJ9sCrpKL-70" edge="1">
          <mxGeometry relative="1" as="geometry" />
        </mxCell>
        <mxCell id="1-Ke2IDWbRorJ9sCrpKL-74" value="1" style="edgeLabel;html=1;align=center;verticalAlign=middle;resizable=0;points=[];" parent="1-Ke2IDWbRorJ9sCrpKL-71" vertex="1" connectable="0">
          <mxGeometry x="0.0267" y="2" relative="1" as="geometry">
            <mxPoint y="1" as="offset" />
          </mxGeometry>
        </mxCell>
        <mxCell id="1-Ke2IDWbRorJ9sCrpKL-1" value="musteri" style="rounded=0;whiteSpace=wrap;html=1;" parent="1" vertex="1">
          <mxGeometry x="150" y="180" width="120" height="60" as="geometry" />
        </mxCell>
        <mxCell id="1-Ke2IDWbRorJ9sCrpKL-2" value="&lt;u&gt;id&lt;/u&gt;" style="ellipse;whiteSpace=wrap;html=1;" parent="1" vertex="1">
          <mxGeometry x="7.5" y="220" width="110" height="60" as="geometry" />
        </mxCell>
        <mxCell id="1-Ke2IDWbRorJ9sCrpKL-3" value="soyad" style="ellipse;whiteSpace=wrap;html=1;" parent="1" vertex="1">
          <mxGeometry x="310" y="200" width="120" height="50" as="geometry" />
        </mxCell>
        <mxCell id="1-Ke2IDWbRorJ9sCrpKL-4" value="ad" style="ellipse;whiteSpace=wrap;html=1;" parent="1" vertex="1">
          <mxGeometry x="170" y="270" width="100" height="60" as="geometry" />
        </mxCell>
        <mxCell id="1-Ke2IDWbRorJ9sCrpKL-5" style="edgeStyle=orthogonalEdgeStyle;rounded=0;orthogonalLoop=1;jettySize=auto;html=1;exitX=0.5;exitY=1;exitDx=0;exitDy=0;" parent="1" source="1-Ke2IDWbRorJ9sCrpKL-4" target="1-Ke2IDWbRorJ9sCrpKL-4" edge="1">
          <mxGeometry relative="1" as="geometry" />
        </mxCell>
        <mxCell id="1-Ke2IDWbRorJ9sCrpKL-12" style="edgeStyle=orthogonalEdgeStyle;rounded=0;orthogonalLoop=1;jettySize=auto;html=1;exitX=1;exitY=1;exitDx=0;exitDy=0;entryX=0;entryY=0.25;entryDx=0;entryDy=0;" parent="1" source="1-Ke2IDWbRorJ9sCrpKL-6" target="1-Ke2IDWbRorJ9sCrpKL-1" edge="1">
          <mxGeometry relative="1" as="geometry" />
        </mxCell>
        <mxCell id="1-Ke2IDWbRorJ9sCrpKL-6" value="kayit_tarihi" style="ellipse;whiteSpace=wrap;html=1;" parent="1" vertex="1">
          <mxGeometry y="110" width="125" height="60" as="geometry" />
        </mxCell>
        <mxCell id="1-Ke2IDWbRorJ9sCrpKL-13" style="edgeStyle=orthogonalEdgeStyle;rounded=0;orthogonalLoop=1;jettySize=auto;html=1;exitX=0.5;exitY=1;exitDx=0;exitDy=0;entryX=0.5;entryY=0;entryDx=0;entryDy=0;" parent="1" source="1-Ke2IDWbRorJ9sCrpKL-7" target="1-Ke2IDWbRorJ9sCrpKL-1" edge="1">
          <mxGeometry relative="1" as="geometry" />
        </mxCell>
        <mxCell id="1-Ke2IDWbRorJ9sCrpKL-7" value="sehir" style="ellipse;whiteSpace=wrap;html=1;" parent="1" vertex="1">
          <mxGeometry x="150" y="90" width="120" height="70" as="geometry" />
        </mxCell>
        <mxCell id="1-Ke2IDWbRorJ9sCrpKL-14" style="edgeStyle=orthogonalEdgeStyle;rounded=0;orthogonalLoop=1;jettySize=auto;html=1;exitX=0;exitY=1;exitDx=0;exitDy=0;entryX=1;entryY=0;entryDx=0;entryDy=0;" parent="1" source="1-Ke2IDWbRorJ9sCrpKL-8" target="1-Ke2IDWbRorJ9sCrpKL-1" edge="1">
          <mxGeometry relative="1" as="geometry" />
        </mxCell>
        <mxCell id="1-Ke2IDWbRorJ9sCrpKL-8" value="email" style="ellipse;whiteSpace=wrap;html=1;" parent="1" vertex="1">
          <mxGeometry x="294" y="110" width="120" height="60" as="geometry" />
        </mxCell>
        <mxCell id="1-Ke2IDWbRorJ9sCrpKL-11" style="edgeStyle=orthogonalEdgeStyle;rounded=0;orthogonalLoop=1;jettySize=auto;html=1;exitX=1;exitY=0;exitDx=0;exitDy=0;entryX=-0.017;entryY=0.883;entryDx=0;entryDy=0;entryPerimeter=0;" parent="1" source="1-Ke2IDWbRorJ9sCrpKL-2" target="1-Ke2IDWbRorJ9sCrpKL-1" edge="1">
          <mxGeometry relative="1" as="geometry" />
        </mxCell>
        <mxCell id="1-Ke2IDWbRorJ9sCrpKL-15" style="edgeStyle=orthogonalEdgeStyle;rounded=0;orthogonalLoop=1;jettySize=auto;html=1;exitX=0;exitY=0;exitDx=0;exitDy=0;entryX=1;entryY=0.617;entryDx=0;entryDy=0;entryPerimeter=0;" parent="1" source="1-Ke2IDWbRorJ9sCrpKL-3" target="1-Ke2IDWbRorJ9sCrpKL-1" edge="1">
          <mxGeometry relative="1" as="geometry" />
        </mxCell>
        <mxCell id="1-Ke2IDWbRorJ9sCrpKL-16" style="edgeStyle=orthogonalEdgeStyle;rounded=0;orthogonalLoop=1;jettySize=auto;html=1;exitX=0.5;exitY=0;exitDx=0;exitDy=0;entryX=0.667;entryY=0.983;entryDx=0;entryDy=0;entryPerimeter=0;" parent="1" source="1-Ke2IDWbRorJ9sCrpKL-4" target="1-Ke2IDWbRorJ9sCrpKL-1" edge="1">
          <mxGeometry relative="1" as="geometry" />
        </mxCell>
        <mxCell id="1-Ke2IDWbRorJ9sCrpKL-83" style="edgeStyle=orthogonalEdgeStyle;rounded=0;orthogonalLoop=1;jettySize=auto;html=1;exitX=0.75;exitY=1;exitDx=0;exitDy=0;entryX=0.5;entryY=1;entryDx=0;entryDy=0;" parent="1" source="1-Ke2IDWbRorJ9sCrpKL-17" target="1-Ke2IDWbRorJ9sCrpKL-76" edge="1">
          <mxGeometry relative="1" as="geometry">
            <Array as="points">
              <mxPoint x="190" y="470" />
              <mxPoint x="250" y="470" />
              <mxPoint x="250" y="580" />
            </Array>
          </mxGeometry>
        </mxCell>
        <mxCell id="1-Ke2IDWbRorJ9sCrpKL-84" value="N" style="edgeLabel;html=1;align=center;verticalAlign=middle;resizable=0;points=[];" parent="1-Ke2IDWbRorJ9sCrpKL-83" vertex="1" connectable="0">
          <mxGeometry x="0.2625" y="-1" relative="1" as="geometry">
            <mxPoint as="offset" />
          </mxGeometry>
        </mxCell>
        <mxCell id="1-Ke2IDWbRorJ9sCrpKL-93" style="edgeStyle=orthogonalEdgeStyle;rounded=0;orthogonalLoop=1;jettySize=auto;html=1;exitX=1;exitY=0.5;exitDx=0;exitDy=0;entryX=0;entryY=0.5;entryDx=0;entryDy=0;" parent="1" source="1-Ke2IDWbRorJ9sCrpKL-17" target="1-Ke2IDWbRorJ9sCrpKL-92" edge="1">
          <mxGeometry relative="1" as="geometry" />
        </mxCell>
        <mxCell id="1-Ke2IDWbRorJ9sCrpKL-97" value="N" style="edgeLabel;html=1;align=center;verticalAlign=middle;resizable=0;points=[];" parent="1-Ke2IDWbRorJ9sCrpKL-93" vertex="1" connectable="0">
          <mxGeometry x="0.045" y="4" relative="1" as="geometry">
            <mxPoint as="offset" />
          </mxGeometry>
        </mxCell>
        <mxCell id="1-Ke2IDWbRorJ9sCrpKL-99" style="edgeStyle=orthogonalEdgeStyle;rounded=0;orthogonalLoop=1;jettySize=auto;html=1;exitX=0.25;exitY=1;exitDx=0;exitDy=0;entryX=1;entryY=0.5;entryDx=0;entryDy=0;" parent="1" source="1-Ke2IDWbRorJ9sCrpKL-17" target="1-Ke2IDWbRorJ9sCrpKL-86" edge="1">
          <mxGeometry relative="1" as="geometry">
            <Array as="points">
              <mxPoint x="100" y="460" />
              <mxPoint x="100" y="608" />
            </Array>
          </mxGeometry>
        </mxCell>
        <mxCell id="1-Ke2IDWbRorJ9sCrpKL-100" value="N" style="edgeLabel;html=1;align=center;verticalAlign=middle;resizable=0;points=[];" parent="1-Ke2IDWbRorJ9sCrpKL-99" vertex="1" connectable="0">
          <mxGeometry x="0.0198" y="-2" relative="1" as="geometry">
            <mxPoint as="offset" />
          </mxGeometry>
        </mxCell>
        <mxCell id="1-Ke2IDWbRorJ9sCrpKL-17" value="urun" style="rounded=0;whiteSpace=wrap;html=1;" parent="1" vertex="1">
          <mxGeometry x="100" y="400" width="120" height="60" as="geometry" />
        </mxCell>
        <mxCell id="1-Ke2IDWbRorJ9sCrpKL-102" style="edgeStyle=orthogonalEdgeStyle;rounded=0;orthogonalLoop=1;jettySize=auto;html=1;exitX=1;exitY=0;exitDx=0;exitDy=0;entryX=0.5;entryY=0;entryDx=0;entryDy=0;" parent="1" source="1-Ke2IDWbRorJ9sCrpKL-20" target="1-Ke2IDWbRorJ9sCrpKL-17" edge="1">
          <mxGeometry relative="1" as="geometry" />
        </mxCell>
        <mxCell id="1-Ke2IDWbRorJ9sCrpKL-20" value="stok" style="ellipse;whiteSpace=wrap;html=1;" parent="1" vertex="1">
          <mxGeometry x="-50" y="360" width="120" height="60" as="geometry" />
        </mxCell>
        <mxCell id="1-Ke2IDWbRorJ9sCrpKL-21" value="fiyat" style="ellipse;whiteSpace=wrap;html=1;" parent="1" vertex="1">
          <mxGeometry x="117.5" y="500" width="120" height="70" as="geometry" />
        </mxCell>
        <mxCell id="1-Ke2IDWbRorJ9sCrpKL-29" style="edgeStyle=orthogonalEdgeStyle;rounded=0;orthogonalLoop=1;jettySize=auto;html=1;exitX=0;exitY=0.5;exitDx=0;exitDy=0;entryX=1;entryY=0.75;entryDx=0;entryDy=0;" parent="1" source="1-Ke2IDWbRorJ9sCrpKL-22" target="1-Ke2IDWbRorJ9sCrpKL-17" edge="1">
          <mxGeometry relative="1" as="geometry" />
        </mxCell>
        <mxCell id="1-Ke2IDWbRorJ9sCrpKL-22" value="ad" style="ellipse;whiteSpace=wrap;html=1;" parent="1" vertex="1">
          <mxGeometry x="260" y="430" width="120" height="60" as="geometry" />
        </mxCell>
        <mxCell id="1-Ke2IDWbRorJ9sCrpKL-28" style="edgeStyle=orthogonalEdgeStyle;rounded=0;orthogonalLoop=1;jettySize=auto;html=1;exitX=0;exitY=0.5;exitDx=0;exitDy=0;entryX=1;entryY=0.25;entryDx=0;entryDy=0;" parent="1" source="1-Ke2IDWbRorJ9sCrpKL-23" target="1-Ke2IDWbRorJ9sCrpKL-17" edge="1">
          <mxGeometry relative="1" as="geometry" />
        </mxCell>
        <mxCell id="1-Ke2IDWbRorJ9sCrpKL-23" value="&lt;u&gt;id&lt;/u&gt;" style="ellipse;whiteSpace=wrap;html=1;" parent="1" vertex="1">
          <mxGeometry x="260" y="340" width="90" height="60" as="geometry" />
        </mxCell>
        <mxCell id="1-Ke2IDWbRorJ9sCrpKL-24" style="edgeStyle=orthogonalEdgeStyle;rounded=0;orthogonalLoop=1;jettySize=auto;html=1;exitX=0.5;exitY=1;exitDx=0;exitDy=0;" parent="1" source="1-Ke2IDWbRorJ9sCrpKL-20" target="1-Ke2IDWbRorJ9sCrpKL-20" edge="1">
          <mxGeometry relative="1" as="geometry" />
        </mxCell>
        <mxCell id="1-Ke2IDWbRorJ9sCrpKL-25" style="edgeStyle=orthogonalEdgeStyle;rounded=0;orthogonalLoop=1;jettySize=auto;html=1;exitX=0.5;exitY=1;exitDx=0;exitDy=0;" parent="1" source="1-Ke2IDWbRorJ9sCrpKL-20" target="1-Ke2IDWbRorJ9sCrpKL-20" edge="1">
          <mxGeometry relative="1" as="geometry" />
        </mxCell>
        <mxCell id="1-Ke2IDWbRorJ9sCrpKL-30" style="edgeStyle=orthogonalEdgeStyle;rounded=0;orthogonalLoop=1;jettySize=auto;html=1;exitX=0.5;exitY=0;exitDx=0;exitDy=0;entryX=0.65;entryY=1.017;entryDx=0;entryDy=0;entryPerimeter=0;" parent="1" source="1-Ke2IDWbRorJ9sCrpKL-21" target="1-Ke2IDWbRorJ9sCrpKL-17" edge="1">
          <mxGeometry relative="1" as="geometry" />
        </mxCell>
        <mxCell id="1-Ke2IDWbRorJ9sCrpKL-33" value="siparis" style="rounded=0;whiteSpace=wrap;html=1;" parent="1" vertex="1">
          <mxGeometry x="587" y="180" width="120" height="60" as="geometry" />
        </mxCell>
        <mxCell id="1-Ke2IDWbRorJ9sCrpKL-42" style="edgeStyle=orthogonalEdgeStyle;rounded=0;orthogonalLoop=1;jettySize=auto;html=1;exitX=0;exitY=1;exitDx=0;exitDy=0;entryX=0.75;entryY=0;entryDx=0;entryDy=0;" parent="1" source="1-Ke2IDWbRorJ9sCrpKL-34" target="1-Ke2IDWbRorJ9sCrpKL-33" edge="1">
          <mxGeometry relative="1" as="geometry" />
        </mxCell>
        <mxCell id="1-Ke2IDWbRorJ9sCrpKL-34" value="odeme_turu" style="ellipse;whiteSpace=wrap;html=1;" parent="1" vertex="1">
          <mxGeometry x="700" y="100" width="120" height="50" as="geometry" />
        </mxCell>
        <mxCell id="1-Ke2IDWbRorJ9sCrpKL-43" style="edgeStyle=orthogonalEdgeStyle;rounded=0;orthogonalLoop=1;jettySize=auto;html=1;exitX=0.5;exitY=0;exitDx=0;exitDy=0;entryX=1;entryY=0.5;entryDx=0;entryDy=0;" parent="1" source="1-Ke2IDWbRorJ9sCrpKL-35" target="1-Ke2IDWbRorJ9sCrpKL-33" edge="1">
          <mxGeometry relative="1" as="geometry" />
        </mxCell>
        <mxCell id="1-Ke2IDWbRorJ9sCrpKL-35" value="toplam_tutar" style="ellipse;whiteSpace=wrap;html=1;" parent="1" vertex="1">
          <mxGeometry x="700" y="260" width="120" height="60" as="geometry" />
        </mxCell>
        <mxCell id="1-Ke2IDWbRorJ9sCrpKL-36" value="tarih" style="ellipse;whiteSpace=wrap;html=1;" parent="1" vertex="1">
          <mxGeometry x="580" y="295" width="120" height="50" as="geometry" />
        </mxCell>
        <mxCell id="1-Ke2IDWbRorJ9sCrpKL-103" style="edgeStyle=orthogonalEdgeStyle;rounded=0;orthogonalLoop=1;jettySize=auto;html=1;exitX=0.5;exitY=1;exitDx=0;exitDy=0;entryX=0;entryY=0.5;entryDx=0;entryDy=0;" parent="1" source="1-Ke2IDWbRorJ9sCrpKL-38" target="1-Ke2IDWbRorJ9sCrpKL-33" edge="1">
          <mxGeometry relative="1" as="geometry" />
        </mxCell>
        <mxCell id="1-Ke2IDWbRorJ9sCrpKL-38" value="&lt;u&gt;id&lt;/u&gt;" style="ellipse;whiteSpace=wrap;html=1;" parent="1" vertex="1">
          <mxGeometry x="460" y="110" width="120" height="60" as="geometry" />
        </mxCell>
        <mxCell id="1-Ke2IDWbRorJ9sCrpKL-44" style="edgeStyle=orthogonalEdgeStyle;rounded=0;orthogonalLoop=1;jettySize=auto;html=1;exitX=0.5;exitY=0;exitDx=0;exitDy=0;entryX=0.383;entryY=1.067;entryDx=0;entryDy=0;entryPerimeter=0;" parent="1" source="1-Ke2IDWbRorJ9sCrpKL-36" target="1-Ke2IDWbRorJ9sCrpKL-33" edge="1">
          <mxGeometry relative="1" as="geometry" />
        </mxCell>
        <mxCell id="1-Ke2IDWbRorJ9sCrpKL-51" style="edgeStyle=orthogonalEdgeStyle;rounded=0;orthogonalLoop=1;jettySize=auto;html=1;exitX=0.5;exitY=1;exitDx=0;exitDy=0;" parent="1" edge="1">
          <mxGeometry relative="1" as="geometry">
            <mxPoint x="767" y="430" as="sourcePoint" />
            <mxPoint x="767" y="430" as="targetPoint" />
          </mxGeometry>
        </mxCell>
        <mxCell id="1-Ke2IDWbRorJ9sCrpKL-57" value="kategori" style="rounded=0;whiteSpace=wrap;html=1;" parent="1" vertex="1">
          <mxGeometry x="50" y="660" width="120" height="60" as="geometry" />
        </mxCell>
        <mxCell id="1-Ke2IDWbRorJ9sCrpKL-61" style="edgeStyle=orthogonalEdgeStyle;rounded=0;orthogonalLoop=1;jettySize=auto;html=1;exitX=0;exitY=0.5;exitDx=0;exitDy=0;entryX=0.5;entryY=1;entryDx=0;entryDy=0;" parent="1" source="1-Ke2IDWbRorJ9sCrpKL-58" target="1-Ke2IDWbRorJ9sCrpKL-57" edge="1">
          <mxGeometry relative="1" as="geometry" />
        </mxCell>
        <mxCell id="1-Ke2IDWbRorJ9sCrpKL-58" value="ad" style="ellipse;whiteSpace=wrap;html=1;" parent="1" vertex="1">
          <mxGeometry x="200" y="750" width="120" height="60" as="geometry" />
        </mxCell>
        <mxCell id="1-Ke2IDWbRorJ9sCrpKL-62" style="edgeStyle=orthogonalEdgeStyle;rounded=0;orthogonalLoop=1;jettySize=auto;html=1;exitX=0;exitY=1;exitDx=0;exitDy=0;entryX=1;entryY=0.5;entryDx=0;entryDy=0;" parent="1" source="1-Ke2IDWbRorJ9sCrpKL-59" target="1-Ke2IDWbRorJ9sCrpKL-57" edge="1">
          <mxGeometry relative="1" as="geometry" />
        </mxCell>
        <mxCell id="1-Ke2IDWbRorJ9sCrpKL-59" value="&lt;u&gt;id&lt;/u&gt;" style="ellipse;whiteSpace=wrap;html=1;" parent="1" vertex="1">
          <mxGeometry x="210" y="585" width="120" height="60" as="geometry" />
        </mxCell>
        <mxCell id="1-Ke2IDWbRorJ9sCrpKL-60" style="edgeStyle=orthogonalEdgeStyle;rounded=0;orthogonalLoop=1;jettySize=auto;html=1;exitX=0.5;exitY=1;exitDx=0;exitDy=0;" parent="1" source="1-Ke2IDWbRorJ9sCrpKL-58" target="1-Ke2IDWbRorJ9sCrpKL-58" edge="1">
          <mxGeometry relative="1" as="geometry" />
        </mxCell>
        <mxCell id="1-Ke2IDWbRorJ9sCrpKL-63" value="satici" style="rounded=0;whiteSpace=wrap;html=1;" parent="1" vertex="1">
          <mxGeometry x="520" y="710" width="120" height="60" as="geometry" />
        </mxCell>
        <mxCell id="1-Ke2IDWbRorJ9sCrpKL-69" style="edgeStyle=orthogonalEdgeStyle;rounded=0;orthogonalLoop=1;jettySize=auto;html=1;exitX=1;exitY=0.5;exitDx=0;exitDy=0;entryX=0.5;entryY=1;entryDx=0;entryDy=0;" parent="1" source="1-Ke2IDWbRorJ9sCrpKL-64" target="1-Ke2IDWbRorJ9sCrpKL-63" edge="1">
          <mxGeometry relative="1" as="geometry" />
        </mxCell>
        <mxCell id="1-Ke2IDWbRorJ9sCrpKL-64" value="adres" style="ellipse;whiteSpace=wrap;html=1;" parent="1" vertex="1">
          <mxGeometry x="380" y="780" width="120" height="60" as="geometry" />
        </mxCell>
        <mxCell id="1-Ke2IDWbRorJ9sCrpKL-67" style="edgeStyle=orthogonalEdgeStyle;rounded=0;orthogonalLoop=1;jettySize=auto;html=1;exitX=0.5;exitY=1;exitDx=0;exitDy=0;entryX=1;entryY=0.5;entryDx=0;entryDy=0;" parent="1" source="1-Ke2IDWbRorJ9sCrpKL-65" target="1-Ke2IDWbRorJ9sCrpKL-63" edge="1">
          <mxGeometry relative="1" as="geometry" />
        </mxCell>
        <mxCell id="1-Ke2IDWbRorJ9sCrpKL-65" value="ad" style="ellipse;whiteSpace=wrap;html=1;" parent="1" vertex="1">
          <mxGeometry x="600" y="614.5" width="120" height="60" as="geometry" />
        </mxCell>
        <mxCell id="1-Ke2IDWbRorJ9sCrpKL-68" style="edgeStyle=orthogonalEdgeStyle;rounded=0;orthogonalLoop=1;jettySize=auto;html=1;exitX=0.5;exitY=1;exitDx=0;exitDy=0;entryX=0;entryY=0.5;entryDx=0;entryDy=0;" parent="1" source="1-Ke2IDWbRorJ9sCrpKL-66" target="1-Ke2IDWbRorJ9sCrpKL-63" edge="1">
          <mxGeometry relative="1" as="geometry" />
        </mxCell>
        <mxCell id="1-Ke2IDWbRorJ9sCrpKL-66" value="&lt;u&gt;id&lt;/u&gt;" style="ellipse;whiteSpace=wrap;html=1;" parent="1" vertex="1">
          <mxGeometry x="370" y="645" width="120" height="55" as="geometry" />
        </mxCell>
        <mxCell id="1-Ke2IDWbRorJ9sCrpKL-104" style="edgeStyle=orthogonalEdgeStyle;rounded=0;orthogonalLoop=1;jettySize=auto;html=1;exitX=1;exitY=0;exitDx=0;exitDy=0;entryX=0;entryY=0.5;entryDx=0;entryDy=0;" parent="1" source="1-Ke2IDWbRorJ9sCrpKL-70" target="1-Ke2IDWbRorJ9sCrpKL-33" edge="1">
          <mxGeometry relative="1" as="geometry" />
        </mxCell>
        <mxCell id="1-Ke2IDWbRorJ9sCrpKL-105" value="N" style="edgeLabel;html=1;align=center;verticalAlign=middle;resizable=0;points=[];" parent="1-Ke2IDWbRorJ9sCrpKL-104" vertex="1" connectable="0">
          <mxGeometry x="0.0719" y="1" relative="1" as="geometry">
            <mxPoint x="1" as="offset" />
          </mxGeometry>
        </mxCell>
        <mxCell id="1-Ke2IDWbRorJ9sCrpKL-70" value="VEREBİLİR" style="rhombus;whiteSpace=wrap;html=1;" parent="1" vertex="1">
          <mxGeometry x="380" y="295" width="120" height="110" as="geometry" />
        </mxCell>
        <mxCell id="1-Ke2IDWbRorJ9sCrpKL-78" style="edgeStyle=orthogonalEdgeStyle;rounded=0;orthogonalLoop=1;jettySize=auto;html=1;exitX=0.5;exitY=0;exitDx=0;exitDy=0;entryX=0;entryY=1;entryDx=0;entryDy=0;" parent="1" source="1-Ke2IDWbRorJ9sCrpKL-76" target="1-Ke2IDWbRorJ9sCrpKL-33" edge="1">
          <mxGeometry relative="1" as="geometry" />
        </mxCell>
        <mxCell id="1-Ke2IDWbRorJ9sCrpKL-85" value="M" style="edgeLabel;html=1;align=center;verticalAlign=middle;resizable=0;points=[];" parent="1-Ke2IDWbRorJ9sCrpKL-78" vertex="1" connectable="0">
          <mxGeometry x="-0.4385" relative="1" as="geometry">
            <mxPoint as="offset" />
          </mxGeometry>
        </mxCell>
        <mxCell id="1-Ke2IDWbRorJ9sCrpKL-76" value="İÇEREBİLİR" style="rhombus;whiteSpace=wrap;html=1;" parent="1" vertex="1">
          <mxGeometry x="450" y="480" width="120" height="100" as="geometry" />
        </mxCell>
        <mxCell id="1-Ke2IDWbRorJ9sCrpKL-79" value="adet" style="ellipse;whiteSpace=wrap;html=1;" parent="1" vertex="1">
          <mxGeometry x="310" y="520" width="120" height="50" as="geometry" />
        </mxCell>
        <mxCell id="1-Ke2IDWbRorJ9sCrpKL-82" style="edgeStyle=orthogonalEdgeStyle;rounded=0;orthogonalLoop=1;jettySize=auto;html=1;exitX=0;exitY=0.5;exitDx=0;exitDy=0;" parent="1" source="1-Ke2IDWbRorJ9sCrpKL-80" target="1-Ke2IDWbRorJ9sCrpKL-76" edge="1">
          <mxGeometry relative="1" as="geometry" />
        </mxCell>
        <mxCell id="1-Ke2IDWbRorJ9sCrpKL-80" value="fiyat" style="ellipse;whiteSpace=wrap;html=1;" parent="1" vertex="1">
          <mxGeometry x="600" y="520" width="120" height="50" as="geometry" />
        </mxCell>
        <mxCell id="1-Ke2IDWbRorJ9sCrpKL-81" style="edgeStyle=orthogonalEdgeStyle;rounded=0;orthogonalLoop=1;jettySize=auto;html=1;exitX=1;exitY=0.5;exitDx=0;exitDy=0;entryX=0.308;entryY=0.78;entryDx=0;entryDy=0;entryPerimeter=0;" parent="1" source="1-Ke2IDWbRorJ9sCrpKL-79" target="1-Ke2IDWbRorJ9sCrpKL-76" edge="1">
          <mxGeometry relative="1" as="geometry" />
        </mxCell>
        <mxCell id="1-Ke2IDWbRorJ9sCrpKL-89" style="edgeStyle=orthogonalEdgeStyle;rounded=0;orthogonalLoop=1;jettySize=auto;html=1;exitX=0;exitY=1;exitDx=0;exitDy=0;entryX=0;entryY=0.75;entryDx=0;entryDy=0;" parent="1" source="1-Ke2IDWbRorJ9sCrpKL-86" target="1-Ke2IDWbRorJ9sCrpKL-57" edge="1">
          <mxGeometry relative="1" as="geometry" />
        </mxCell>
        <mxCell id="1-Ke2IDWbRorJ9sCrpKL-91" value="1" style="edgeLabel;html=1;align=center;verticalAlign=middle;resizable=0;points=[];" parent="1-Ke2IDWbRorJ9sCrpKL-89" vertex="1" connectable="0">
          <mxGeometry x="-0.1259" y="1" relative="1" as="geometry">
            <mxPoint as="offset" />
          </mxGeometry>
        </mxCell>
        <mxCell id="1-Ke2IDWbRorJ9sCrpKL-86" value="VARDIR" style="rhombus;whiteSpace=wrap;html=1;" parent="1" vertex="1">
          <mxGeometry x="-40" y="565" width="90" height="85" as="geometry" />
        </mxCell>
        <mxCell id="1-Ke2IDWbRorJ9sCrpKL-94" style="edgeStyle=orthogonalEdgeStyle;rounded=0;orthogonalLoop=1;jettySize=auto;html=1;exitX=1;exitY=0.5;exitDx=0;exitDy=0;" parent="1" edge="1">
          <mxGeometry relative="1" as="geometry">
            <mxPoint x="705" y="430" as="sourcePoint" />
            <mxPoint x="555" y="710" as="targetPoint" />
            <Array as="points">
              <mxPoint x="725" y="430" />
              <mxPoint x="725" y="590" />
              <mxPoint x="555" y="590" />
            </Array>
          </mxGeometry>
        </mxCell>
        <mxCell id="1-Ke2IDWbRorJ9sCrpKL-96" value="1" style="edgeLabel;html=1;align=center;verticalAlign=middle;resizable=0;points=[];" parent="1-Ke2IDWbRorJ9sCrpKL-94" vertex="1" connectable="0">
          <mxGeometry x="0.166" y="-1" relative="1" as="geometry">
            <mxPoint as="offset" />
          </mxGeometry>
        </mxCell>
        <mxCell id="1-Ke2IDWbRorJ9sCrpKL-92" value="AİTTİR" style="rhombus;whiteSpace=wrap;html=1;" parent="1" vertex="1">
          <mxGeometry x="620" y="380" width="110" height="100" as="geometry" />
        </mxCell>
      </root>
    </mxGraphModel>
  </diagram>
</mxfile>
